# xmcd
#
# Track frame offsets:
#	150
#	17299
#	33626
#	46743
#	62828
#	75117
#	87700
#	104624
#	117318
#	130029
#	146251
#	162563
#	176412
#	195196
#	212907
#	223455
#	239504
#	259852
#	274207
#	290126
#
# Disc length: 4068 seconds
#
# Revision: 1
# Processed by: cddbd v1.5PL3 Copyright (c) Steve Scherf et al.
# Submitted via: audiograbber 1.83.01
#
DISCID=2a0fe214
DTITLE=Diverse - Line Dance Favourites CD2
DYEAR=1900
DGENRE=Country
TTITLE0=Standing outside the fire
TTITLE1=He thinks he'll keep her
TTITLE2=Indian outlaw
TTITLE3=Piece of my heart
TTITLE4=Third rock from the sun
TTITLE5=I try to think about Elvis
TTITLE6=Shut up and kiss me
TTITLE7=Wink
TTITLE8=This time
TTITLE9=Baby likes to rock it
TTITLE10=Honey I'm home
TTITLE11=This kiss
TTITLE12=Any man of mine
TTITLE13=I don't even know your name
TTITLE14=Sold (the grundy county auction incident)
TTITLE15=My Maria
TTITLE16=You win my love
TTITLE17=Poor poor pitiful me
TTITLE18=Like the rain
TTITLE19=Check yes or no
EXTD=
EXTT0=
EXTT1=
EXTT2=
EXTT3=
EXTT4=
EXTT5=
EXTT6=
EXTT7=
EXTT8=
EXTT9=
EXTT10=
EXTT11=
EXTT12=
EXTT13=
EXTT14=
EXTT15=
EXTT16=
EXTT17=
EXTT18=
EXTT19=
PLAYORDER=
